<svg xmlns="http://www.w3.org/2000/svg" width="224" height="103.011" viewBox="0 0 224 103.011">
  <defs>
    <style>
      .cls-1 {
        fill: #fff;
      }
    </style>
  </defs>
  <g id="Logo-world" transform="translate(-0.474 -0.318)">
    <g id="region" transform="translate(10.203 80.858)">
      <g id="Group_2" data-name="Group 2">
        <path id="Path_2" data-name="Path 2" class="cls-1" d="M7.12-34.916V-57.044H17.792a7.328,7.328,0,0,1,3.006.608,7.892,7.892,0,0,1,2.366,1.589,7.192,7.192,0,0,1,1.547,2.228,6.188,6.188,0,0,1,.551,2.525,6.641,6.641,0,0,1-.409,2.322,6.877,6.877,0,0,1-1.138,1.995,6.569,6.569,0,0,1-1.761,1.5,6.743,6.743,0,0,1-2.312.826l6.19,8.54h-2.81l-5.941-8.166H9.61v8.166Zm2.49-10.1h8.253a4.719,4.719,0,0,0,2.01-.421,4.7,4.7,0,0,0,1.547-1.138,5.358,5.358,0,0,0,1-1.621,5.144,5.144,0,0,0,.356-1.9,4.665,4.665,0,0,0-.409-1.917,5.214,5.214,0,0,0-1.1-1.605,5.251,5.251,0,0,0-1.636-1.091,4.949,4.949,0,0,0-1.974-.405H9.61Zm46.6,8.166v1.932H39.244V-57.044H55.893v1.932H41.734v7.979H54.078v1.839H41.734v8.446Zm31.306-1.309a11.344,11.344,0,0,1-8.111,3.4,11.377,11.377,0,0,1-4.714-.966,12.356,12.356,0,0,1-3.735-2.556,11.873,11.873,0,0,1-2.472-3.6,10.109,10.109,0,0,1-.889-4.13,10.615,10.615,0,0,1,.872-4.239A11.15,11.15,0,0,1,70.9-53.818a11.939,11.939,0,0,1,3.7-2.462,11.655,11.655,0,0,1,4.66-.919,14.824,14.824,0,0,1,3.38.358,11.1,11.1,0,0,1,2.721,1,8.474,8.474,0,0,1,2.063,1.527,9.487,9.487,0,0,1,1.476,1.948l-1.921,1.122a7.664,7.664,0,0,0-3.237-3.023,10.223,10.223,0,0,0-4.518-.966,8.944,8.944,0,0,0-3.789.779,8.981,8.981,0,0,0-2.882,2.073,9.189,9.189,0,0,0-1.832,2.961,9.528,9.528,0,0,0-.64,3.444,8.841,8.841,0,0,0,.729,3.553,9.265,9.265,0,0,0,2.01,2.945,9.775,9.775,0,0,0,3.006,2.01,9.333,9.333,0,0,0,3.753.748,9.99,9.99,0,0,0,4.144-.888,12.04,12.04,0,0,0,3.789-2.821V-44.11H81.9v-1.683h7.72v10.877h-2.1Zm16.115,3.241V-57.044h2.49v22.128Zm27.89.156a11.968,11.968,0,0,1-4.82-.951,11.934,11.934,0,0,1-3.753-2.525,11.267,11.267,0,0,1-2.419-3.6,10.579,10.579,0,0,1-.854-4.145,10.259,10.259,0,0,1,.907-4.239,11.545,11.545,0,0,1,2.508-3.584,12.129,12.129,0,0,1,3.771-2.478,11.912,11.912,0,0,1,4.7-.919,11.64,11.64,0,0,1,4.82.982,12.008,12.008,0,0,1,3.735,2.571,11.651,11.651,0,0,1,2.4,3.6,10.393,10.393,0,0,1,.854,4.1,10.259,10.259,0,0,1-.907,4.239,11.5,11.5,0,0,1-2.49,3.569,12.05,12.05,0,0,1-3.753,2.462A11.912,11.912,0,0,1,131.524-34.76Zm-9.356-11.22a9.165,9.165,0,0,0,.676,3.475,9.231,9.231,0,0,0,1.921,2.961,9.348,9.348,0,0,0,2.953,2.057,9.223,9.223,0,0,0,3.806.764,9.088,9.088,0,0,0,3.878-.81,9.308,9.308,0,0,0,2.953-2.119,9.518,9.518,0,0,0,1.868-2.961,9.022,9.022,0,0,0,.658-3.366,8.96,8.96,0,0,0-.694-3.475,9.3,9.3,0,0,0-1.939-2.945,9.476,9.476,0,0,0-2.953-2.041,9.134,9.134,0,0,0-3.771-.764,9.24,9.24,0,0,0-3.878.795,9.11,9.11,0,0,0-2.953,2.1,9.519,9.519,0,0,0-1.868,2.961A9.022,9.022,0,0,0,122.168-45.98Zm37.282-7.013v18.077h-2.49V-57.044h1.921l16.72,18.42V-57.013h2.49v22.1h-2.17Zm48.63.094a7.79,7.79,0,0,0-2.846-1.714,11.7,11.7,0,0,0-4.055-.655,8.432,8.432,0,0,0-4.874,1.106,3.518,3.518,0,0,0-1.53,3.008,2.985,2.985,0,0,0,.409,1.636,3.379,3.379,0,0,0,1.263,1.106,9.556,9.556,0,0,0,2.188.81q1.334.343,3.148.686,2.028.374,3.646.842a11.148,11.148,0,0,1,2.757,1.169,5.134,5.134,0,0,1,1.743,1.7,4.735,4.735,0,0,1,.6,2.493,5.036,5.036,0,0,1-.676,2.649,5.575,5.575,0,0,1-1.885,1.87,9.044,9.044,0,0,1-2.882,1.106,17.5,17.5,0,0,1-3.664.358,16.39,16.39,0,0,1-10.139-3.21l1.245-1.777a9.681,9.681,0,0,0,1.619,1.184,12.362,12.362,0,0,0,2.1.982,14.769,14.769,0,0,0,2.472.654,15.857,15.857,0,0,0,2.775.234,9.692,9.692,0,0,0,4.714-.951,3.1,3.1,0,0,0,1.69-2.883,2.989,2.989,0,0,0-.48-1.73,3.965,3.965,0,0,0-1.441-1.215,11.019,11.019,0,0,0-2.384-.888q-1.423-.374-3.308-.748-1.992-.405-3.486-.841a9.877,9.877,0,0,1-2.526-1.091,4.463,4.463,0,0,1-1.548-1.574,4.559,4.559,0,0,1-.516-2.26,5.577,5.577,0,0,1,.658-2.727,5.579,5.579,0,0,1,1.868-1.995,9.409,9.409,0,0,1,2.846-1.215,14.57,14.57,0,0,1,3.629-.421,13.971,13.971,0,0,1,4.5.67,12.52,12.52,0,0,1,3.575,1.886Z" transform="translate(-7.12 57.2)"/>
      </g>
    </g>
    <path id="World" class="cls-1" d="M224,70H0V21A21,21,0,0,1,21,0H203a21,21,0,0,1,21,21ZM78.337,14a25.176,25.176,0,0,0-10.106,1.9,15.676,15.676,0,0,0-6.845,5.578,16.382,16.382,0,0,0-2.674,8.784c-.039,1.112-.059,2.889-.059,5.282,0,2.354.02,4.091.059,5.162.235,5.2,2.113,9.213,5.583,11.93s8.194,4.1,14.043,4.1,10.573-1.378,14.044-4.1,5.348-6.73,5.582-11.93c.078-2.134.118-3.87.118-5.162s-.04-3.069-.118-5.282a16.38,16.38,0,0,0-2.673-8.784A15.679,15.679,0,0,0,88.444,15.9,25.179,25.179,0,0,0,78.337,14Zm97.01.593a1.523,1.523,0,0,0-1.116.475,1.552,1.552,0,0,0-.47,1.127V54.535a1.556,1.556,0,0,0,.47,1.128,1.522,1.522,0,0,0,1.116.474h17.216c5.771,0,10.427-1.378,13.838-4.1s5.26-6.85,5.494-12.285c.079-2.163.118-3.58.118-4.332,0-.791-.039-2.266-.118-4.511a16.038,16.038,0,0,0-2.762-8.843,16.272,16.272,0,0,0-6.933-5.579,24.7,24.7,0,0,0-9.931-1.9Zm-33.844,0a1.527,1.527,0,0,0-1.117.475,1.552,1.552,0,0,0-.47,1.127V54.535a1.556,1.556,0,0,0,.47,1.128,1.526,1.526,0,0,0,1.117.474h29.615a1.522,1.522,0,0,0,1.116-.474,1.556,1.556,0,0,0,.47-1.128V45.573a1.556,1.556,0,0,0-.47-1.128,1.523,1.523,0,0,0-1.116-.475H154.84V16.2a1.552,1.552,0,0,0-.47-1.127,1.523,1.523,0,0,0-1.117-.475ZM115.12,43.2h2.409l5.053,11.335a2.768,2.768,0,0,0,.852,1.1,2.579,2.579,0,0,0,1.675.5h12.046a1.242,1.242,0,0,0,.911-.385,1.268,1.268,0,0,0,.382-.92,1.494,1.494,0,0,0-.176-.653l-7.227-13.531a14.24,14.24,0,0,0,4.642-4.838,13.358,13.358,0,0,0,1.7-6.8,12.9,12.9,0,0,0-4.759-10.594c-3.159-2.54-7.607-3.828-13.221-3.828H102.017a1.523,1.523,0,0,0-1.116.475,1.55,1.55,0,0,0-.471,1.127V54.535a1.554,1.554,0,0,0,.471,1.128,1.522,1.522,0,0,0,1.116.474h11.516a1.523,1.523,0,0,0,1.117-.474,1.556,1.556,0,0,0,.47-1.128V43.2Zm-80.382-.831v0l4.818,12.164A3.449,3.449,0,0,0,40.35,55.6a2.259,2.259,0,0,0,1.616.534h8.4a2.622,2.622,0,0,0,1.85-.682,2.581,2.581,0,0,0,.852-1.572l5.405-37.8V15.9a1.265,1.265,0,0,0-.382-.92,1.242,1.242,0,0,0-.911-.386H46.255a2.722,2.722,0,0,0-1.558.356A1.569,1.569,0,0,0,44.14,16.2l-2,16.677-2.408-7.359c-.39-1.142-1.063-1.721-2-1.721H31.742c-.936,0-1.608.579-2,1.721l-2.409,7.419-2-16.736a1.565,1.565,0,0,0-.558-1.246,2.72,2.72,0,0,0-1.557-.356H12.293a1.24,1.24,0,0,0-.911.386A1.265,1.265,0,0,0,11,15.9v.178l5.406,37.8a2.58,2.58,0,0,0,.851,1.572,2.623,2.623,0,0,0,1.851.682h8.4a2.255,2.255,0,0,0,1.615-.534,3.438,3.438,0,0,0,.794-1.068l4.817-12.164Zm43.6,2.789a4.182,4.182,0,0,1-3.144-1.187,5.256,5.256,0,0,1-1.2-3.62c-.039-1.152-.059-2.849-.059-5.044,0-2.252.019-3.863.059-4.926a5.17,5.17,0,0,1,1.234-3.621,4.678,4.678,0,0,1,6.228,0,5.166,5.166,0,0,1,1.235,3.621c.078,2.117.117,3.775.117,4.926,0,1.072-.039,2.769-.117,5.044a5.252,5.252,0,0,1-1.205,3.62A4.182,4.182,0,0,1,78.337,45.158Zm113.933-.593h-3.82v-18.4h3.526a5.193,5.193,0,0,1,3.5,1.187,4.789,4.789,0,0,1,1.5,3.56c.078,1.067.118,2.545.118,4.392,0,1.808-.04,3.305-.118,4.45a5.156,5.156,0,0,1-1.381,3.591A4.606,4.606,0,0,1,192.27,44.564Zm-72.86-12.641H115.12V25.632h4.289a2.308,2.308,0,0,1,2.027.979,3.941,3.941,0,0,1,.676,2.285,3.323,3.323,0,0,1-.7,2.166A2.45,2.45,0,0,1,119.409,31.923Z" transform="translate(0.474 0.318)"/>
  </g>
</svg>
