<?xml version="1.0" encoding="utf-8"?>
<!-- Generator: Adobe Illustrator 27.3.1, SVG Export Plug-In . SVG Version: 6.00 Build 0)  -->
<svg version="1.1" id="Laag_1" xmlns="http://www.w3.org/2000/svg" xmlns:xlink="http://www.w3.org/1999/xlink" x="0px" y="0px"
	 viewBox="0 0 256 256" style="enable-background:new 0 0 256 256;" xml:space="preserve">
<style type="text/css">
	.st0{fill:#FFFFFF;}
</style>
<g transform="translate(1.4065934065934016 1.4065934065934016) scale(2.81 2.81)">
	<path class="st0" d="M87.8,77.2L68.2,57.6c9.5-14.4,7.9-34.1-4.8-46.7h0C49-3.6,25.4-3.6,10.9,10.9c-14.5,14.5-14.5,38.1,0,52.6
		c7.2,7.2,16.8,10.9,26.3,10.9c7.1,0,14.3-2,20.4-6.1l19.6,19.6c1.5,1.5,3.4,2.2,5.3,2.2s3.8-0.7,5.3-2.2
		C90.7,84.9,90.7,80.1,87.8,77.2z M21.5,52.8c-8.6-8.6-8.6-22.7,0-31.4c4.3-4.3,10-6.5,15.7-6.5c5.7,0,11.4,2.2,15.7,6.5
		c8.6,8.6,8.6,22.7,0,31.4c0,0,0,0,0,0c0,0,0,0,0,0C44.2,61.5,30.1,61.5,21.5,52.8z"/>
</g>
</svg>
